<svg width="25" height="23" viewBox="0 0 25 23" fill="none" xmlns="http://www.w3.org/2000/svg">
<path fill-rule="evenodd" clip-rule="evenodd" d="M8.5108 20C8.5108 18.9 9.40507 18.0051 10.5043 18.0051C11.6034 18.0051 12.4977 18.9 12.4977 20C12.4977 21.1 11.6035 21.995 10.5043 21.995C9.40507 21.995 8.5108 21.1 8.5108 20ZM9.62386 19.9999C9.62386 20.4857 10.0188 20.881 10.5043 20.881C10.9897 20.881 11.3847 20.4858 11.3847 19.9999C11.3847 19.5141 10.9897 19.1189 10.5043 19.1189C10.0188 19.1189 9.62386 19.5141 9.62386 19.9999Z" fill="#62687E"/>
<path d="M12.4977 20L12.8977 20L12.8977 20L12.4977 20ZM10.5043 17.6051C9.18388 17.6051 8.1108 18.6794 8.1108 20H8.9108C8.9108 19.1206 9.62627 18.4051 10.5043 18.4051V17.6051ZM12.8977 20C12.8977 18.6794 11.8246 17.6051 10.5043 17.6051V18.4051C11.3822 18.4051 12.0977 19.1206 12.0977 20L12.8977 20ZM10.5043 22.395C11.8247 22.395 12.8977 21.3207 12.8977 20H12.0977C12.0977 20.8794 11.3823 21.595 10.5043 21.595V22.395ZM8.1108 20C8.1108 21.3207 9.18388 22.395 10.5043 22.395V21.595C9.62627 21.595 8.9108 20.8794 8.9108 20H8.1108ZM10.5043 20.481C10.24 20.481 10.0239 20.2651 10.0239 19.9999H9.22386C9.22386 20.7063 9.79759 21.281 10.5043 21.281V20.481ZM10.9847 19.9999C10.9847 20.2652 10.7685 20.481 10.5043 20.481V21.281C11.2109 21.281 11.7847 20.7065 11.7847 19.9999H10.9847ZM10.5043 19.5189C10.7685 19.5189 10.9847 19.7348 10.9847 19.9999H11.7847C11.7847 19.2935 11.2109 18.7189 10.5043 18.7189V19.5189ZM10.0239 19.9999C10.0239 19.7347 10.24 19.5189 10.5043 19.5189V18.7189C9.79766 18.7189 9.22386 19.2935 9.22386 19.9999H10.0239Z" fill="#62687E"/>
<path fill-rule="evenodd" clip-rule="evenodd" d="M15.5032 20C15.5032 18.9 16.3974 18.0051 17.4966 18.0051C18.5958 18.0051 19.4901 18.9 19.4901 20C19.4901 21.1 18.5958 21.995 17.4966 21.995C16.3974 21.995 15.5032 21.1 15.5032 20ZM16.6162 19.9999C16.6162 20.4857 17.0112 20.881 17.4966 20.881C17.9821 20.881 18.3771 20.4858 18.3771 19.9999C18.3771 19.5141 17.9821 19.1189 17.4966 19.1189C17.0112 19.1189 16.6162 19.5141 16.6162 19.9999Z" fill="#62687E"/>
<path d="M19.4901 20L19.8901 20L19.8901 20L19.4901 20ZM17.4966 17.6051C16.1763 17.6051 15.1032 18.6794 15.1032 20H15.9032C15.9032 19.1206 16.6186 18.4051 17.4966 18.4051V17.6051ZM19.8901 20C19.8901 18.6794 18.817 17.6051 17.4966 17.6051V18.4051C18.3746 18.4051 19.0901 19.1206 19.0901 20L19.8901 20ZM17.4966 22.395C18.817 22.395 19.8901 21.3207 19.8901 20H19.0901C19.0901 20.8794 18.3747 21.595 17.4966 21.595V22.395ZM15.1032 20C15.1032 21.3207 16.1763 22.395 17.4966 22.395V21.595C16.6186 21.595 15.9032 20.8794 15.9032 20H15.1032ZM17.4966 20.481C17.2324 20.481 17.0162 20.2651 17.0162 19.9999H16.2162C16.2162 20.7063 16.79 21.281 17.4966 21.281V20.481ZM17.9771 19.9999C17.9771 20.2652 17.7609 20.481 17.4966 20.481V21.281C18.2032 21.281 18.7771 20.7065 18.7771 19.9999H17.9771ZM17.4966 19.5189C17.7609 19.5189 17.9771 19.7348 17.9771 19.9999H18.7771C18.7771 19.2935 18.2033 18.7189 17.4966 18.7189V19.5189ZM17.0162 19.9999C17.0162 19.7347 17.2324 19.5189 17.4966 19.5189V18.7189C16.79 18.7189 16.2162 19.2935 16.2162 19.9999H17.0162Z" fill="#62687E"/>
<path fill-rule="evenodd" clip-rule="evenodd" d="M17.9874 8.50183H10.0121C9.70472 8.50183 9.45557 8.75117 9.45557 9.05877C9.45557 9.36638 9.70477 9.61572 10.0121 9.61572H17.9874C18.2948 9.61572 18.544 9.36638 18.544 9.05877C18.544 8.75113 18.2948 8.50183 17.9874 8.50183Z" fill="#62687E" stroke="#62687E" stroke-width="0.8"/>
<path fill-rule="evenodd" clip-rule="evenodd" d="M22.5534 4.61016C22.8894 4.61016 23.2039 4.75964 23.4162 5.02032C23.6284 5.28096 23.7113 5.6194 23.6435 5.94866L22.0868 13.5102C21.9808 14.0254 21.5223 14.3993 20.9967 14.3993H7.23326L7.56082 15.9905H20.8937C21.201 15.9905 21.4502 16.2399 21.4502 16.5475C21.4502 16.8551 21.201 17.1044 20.8937 17.1044H7.56078C7.03515 17.1044 6.57668 16.7305 6.47061 16.2153L3.77779 3.13413L1.33502 2.07301C1.05314 1.9506 0.923741 1.62257 1.04619 1.34036C1.16851 1.05823 1.49625 0.928731 1.77826 1.05132L4.22099 2.1124C4.55306 2.25669 4.79487 2.55459 4.86796 2.90938L5.21806 4.61016H22.5534ZM7.00399 13.2855H20.9967L22.5533 5.72404L5.44738 5.724L7.00399 13.2855Z" fill="#62687E"/>
<path d="M23.4162 5.02032L23.106 5.27286L23.106 5.27292L23.4162 5.02032ZM23.6435 5.94866L24.0353 6.02932L24.0353 6.02931L23.6435 5.94866ZM22.0868 13.5102L21.6951 13.4296L21.695 13.4296L22.0868 13.5102ZM7.23326 14.3993V13.9993H6.74254L6.84148 14.48L7.23326 14.3993ZM7.56082 15.9905L7.16904 16.0712L7.23478 16.3905H7.56082V15.9905ZM6.47061 16.2153L6.07883 16.296L6.07883 16.296L6.47061 16.2153ZM3.77779 3.13413L4.16958 3.05348L4.12769 2.85001L3.93716 2.76725L3.77779 3.13413ZM1.33502 2.07301L1.49439 1.70613L1.49435 1.70611L1.33502 2.07301ZM1.04619 1.34036L1.41314 1.49958L1.41319 1.49947L1.04619 1.34036ZM1.77826 1.05132L1.61879 1.41816L1.61889 1.4182L1.77826 1.05132ZM4.22099 2.1124L4.3804 1.74553L4.38036 1.74551L4.22099 2.1124ZM4.86796 2.90938L5.25975 2.82873L5.25974 2.82867L4.86796 2.90938ZM5.21806 4.61016L4.82627 4.6908L4.89201 5.01016H5.21806V4.61016ZM20.9967 13.2855V13.6855H21.3228L21.3885 13.3662L20.9967 13.2855ZM7.00399 13.2855L6.6122 13.3662L6.67794 13.6855H7.00399V13.2855ZM22.5533 5.72404L22.9451 5.80469L23.044 5.32404L22.5533 5.32404L22.5533 5.72404ZM5.44738 5.724L5.44738 5.324L4.95665 5.324L5.05559 5.80465L5.44738 5.724ZM23.7264 4.76778C23.4382 4.41379 23.0097 4.21016 22.5534 4.21016V5.01016C22.7691 5.01016 22.9697 5.10548 23.106 5.27286L23.7264 4.76778ZM24.0353 6.02931C24.1273 5.58237 24.0145 5.12156 23.7263 4.76772L23.106 5.27292C23.2424 5.44036 23.2953 5.65642 23.2517 5.86801L24.0353 6.02931ZM22.4786 13.5909L24.0353 6.02932L23.2517 5.86801L21.6951 13.4296L22.4786 13.5909ZM20.9967 14.7993C21.7123 14.7993 22.3344 14.2918 22.4786 13.5908L21.695 13.4296C21.6273 13.759 21.3323 13.9993 20.9967 13.9993V14.7993ZM7.23326 14.7993H20.9967V13.9993H7.23326V14.7993ZM7.95261 15.9099L7.62505 14.3186L6.84148 14.48L7.16904 16.0712L7.95261 15.9099ZM20.8937 15.5905H7.56082V16.3905H20.8937V15.5905ZM21.8502 16.5475C21.8502 16.0192 21.4222 15.5905 20.8937 15.5905V16.3905C20.9798 16.3905 21.0502 16.4605 21.0502 16.5475H21.8502ZM20.8937 17.5044C21.4222 17.5044 21.8502 17.0757 21.8502 16.5475H21.0502C21.0502 16.6344 20.9798 16.7044 20.8937 16.7044V17.5044ZM7.56078 17.5044H20.8937V16.7044H7.56078V17.5044ZM6.07883 16.296C6.22314 16.9969 6.84513 17.5044 7.56078 17.5044V16.7044C7.22517 16.7044 6.93022 16.4641 6.86239 16.1346L6.07883 16.296ZM3.38601 3.21478L6.07883 16.296L6.8624 16.1347L4.16958 3.05348L3.38601 3.21478ZM1.17565 2.43989L3.61842 3.50101L3.93716 2.76725L1.49439 1.70613L1.17565 2.43989ZM0.679248 1.18114C0.468962 1.66578 0.691038 2.22943 1.17568 2.43991L1.49435 1.70611C1.41525 1.67176 1.37852 1.57936 1.41314 1.49958L0.679248 1.18114ZM1.93772 0.684481C1.45277 0.473671 0.889368 0.696507 0.679203 1.18124L1.41319 1.49947C1.44766 1.41996 1.53973 1.38379 1.61879 1.41816L1.93772 0.684481ZM4.38036 1.74551L1.93762 0.684438L1.61889 1.4182L4.06162 2.47928L4.38036 1.74551ZM5.25974 2.82867C5.16039 2.34646 4.83197 1.94175 4.3804 1.74553L4.06158 2.47926C4.27416 2.57163 4.42935 2.76273 4.47619 2.99009L5.25974 2.82867ZM5.60984 4.52951L5.25975 2.82873L4.47618 2.99002L4.82627 4.6908L5.60984 4.52951ZM22.5534 4.21016H5.21806V5.01016H22.5534V4.21016ZM20.9967 12.8855H7.00399V13.6855H20.9967V12.8855ZM22.1615 5.64339L20.6049 13.2049L21.3885 13.3662L22.9451 5.80469L22.1615 5.64339ZM5.44738 6.124L22.5533 6.12404L22.5533 5.32404L5.44738 5.324L5.44738 6.124ZM7.39577 13.2049L5.83916 5.64334L5.05559 5.80465L6.6122 13.3662L7.39577 13.2049Z" fill="#62687E"/>
</svg>
