<svg width="15" height="15" viewBox="0 0 15 15" fill="none" xmlns="http://www.w3.org/2000/svg">
<path fill-rule="evenodd" clip-rule="evenodd" d="M0 7.5C0 3.3645 3.3645 0 7.5 0C11.6355 0 15 3.3645 15 7.5C15 11.6355 11.6355 15 7.5 15C3.3645 15 0 11.6355 0 7.5ZM1.59572 7.5C1.59572 10.7557 4.24449 13.4041 7.5 13.4041C10.7555 13.4041 13.4043 10.7557 13.4043 7.5C13.4043 4.24434 10.7555 1.59587 7.5 1.59587C4.24449 1.59587 1.59572 4.24434 1.59572 7.5Z" fill="#CECECE"/>
<path fill-rule="evenodd" clip-rule="evenodd" d="M11.4088 7.7451H8.18231V3.62745C8.18231 3.28094 7.91762 3 7.59116 3C7.26469 3 7 3.28094 7 3.62745V8.37255C7 8.71906 7.26469 9 7.59116 9H11.4088C11.7353 9 12 8.71906 12 8.37255C12 8.02604 11.7353 7.7451 11.4088 7.7451Z" fill="#CECECE"/>
</svg>
