<svg width="19" height="17" viewBox="0 0 19 17" fill="none" xmlns="http://www.w3.org/2000/svg">
<path fill-rule="evenodd" clip-rule="evenodd" d="M7.75207 11H5.24793C5.111 11 5 11.2239 5 11.5C5 11.7761 5.111 12 5.24793 12H7.75207C7.889 12 8 11.7761 8 11.5C8 11.2239 7.889 11 7.75207 11Z" fill="#CECECE" stroke="#CECECE" stroke-width="0.8"/>
<path fill-rule="evenodd" clip-rule="evenodd" d="M12.7521 11H10.2479C10.111 11 10 11.2239 10 11.5C10 11.7761 10.111 12 10.2479 12H12.7521C12.889 12 13 11.7761 13 11.5C13 11.2239 12.889 11 12.7521 11Z" fill="#CECECE" stroke="#CECECE" stroke-width="0.8"/>
<path fill-rule="evenodd" clip-rule="evenodd" d="M12.7521 6H10.2479C10.111 6 10 6.22385 10 6.5C10 6.77615 10.111 7 10.2479 7H12.7521C12.889 7 13 6.77615 13 6.5C13 6.22385 12.889 6 12.7521 6Z" fill="#CECECE" stroke="#CECECE" stroke-width="0.8"/>
<path fill-rule="evenodd" clip-rule="evenodd" d="M5.24793 5H7.75207C7.889 5 8 5.111 8 5.24793V7.75207C8 7.889 7.889 8 7.75207 8H5.24793C5.111 8 5 7.889 5 7.75207V5.24793C5 5.111 5.111 5 5.24793 5ZM5.49587 7.50413H7.50413V5.49587H5.49587V7.50413Z" fill="#CECECE"/>
<path d="M7.50413 7.50413V7.90413H7.90413V7.50413H7.50413ZM5.49587 7.50413H5.09587V7.90413H5.49587V7.50413ZM7.50413 5.49587H7.90413V5.09587H7.50413V5.49587ZM5.49587 5.49587V5.09587H5.09587V5.49587H5.49587ZM7.75207 4.6H5.24793V5.4H7.75207V4.6ZM8.4 5.24793C8.4 4.89009 8.10991 4.6 7.75207 4.6V5.4C7.66809 5.4 7.6 5.33191 7.6 5.24793H8.4ZM8.4 7.75207V5.24793H7.6V7.75207H8.4ZM7.75207 8.4C8.10991 8.4 8.4 8.10991 8.4 7.75207H7.6C7.6 7.66809 7.66809 7.6 7.75207 7.6V8.4ZM5.24793 8.4H7.75207V7.6H5.24793V8.4ZM4.6 7.75207C4.6 8.10991 4.89009 8.4 5.24793 8.4V7.6C5.33191 7.6 5.4 7.66809 5.4 7.75207H4.6ZM4.6 5.24793V7.75207H5.4V5.24793H4.6ZM5.24793 4.6C4.89009 4.6 4.6 4.89009 4.6 5.24793H5.4C5.4 5.33191 5.33191 5.4 5.24793 5.4V4.6ZM7.50413 7.10413H5.49587V7.90413H7.50413V7.10413ZM7.10413 5.49587V7.50413H7.90413V5.49587H7.10413ZM5.49587 5.89587H7.50413V5.09587H5.49587V5.89587ZM5.89587 7.50413V5.49587H5.09587V7.50413H5.89587Z" fill="#CECECE"/>
<path fill-rule="evenodd" clip-rule="evenodd" d="M16.0769 2.92308H17.2308C17.6549 2.92308 18 3.26815 18 3.69231V14.0769C18 15.1373 17.1373 16 16.0769 16H2.92308C1.86269 16 1 15.1373 1 14.0769V1.76923C1 1.34508 1.34508 1 1.76923 1H15.3077C15.7318 1 16.0769 1.34508 16.0769 1.76923V2.92308ZM16.0769 15.2308C16.7132 15.2308 17.2308 14.7132 17.2308 14.0769V3.69231H16.0769V13.5C16.0769 13.606 16.1632 13.6923 16.2692 13.6923C16.4816 13.6923 16.6538 13.8645 16.6538 14.0769C16.6538 14.2893 16.4816 14.4615 16.2692 14.4615C15.739 14.4615 15.3077 14.0302 15.3077 13.5V1.76923H1.76923V14.0769C1.76923 14.7132 2.28685 15.2308 2.92308 15.2308H16.0769Z" fill="#CECECE"/>
<path d="M16.0769 2.92308H15.6769V3.32308H16.0769V2.92308ZM17.2308 3.69231H17.6308V3.29231H17.2308V3.69231ZM16.0769 3.69231V3.29231H15.6769V3.69231H16.0769ZM15.3077 1.76923H15.7077V1.36923H15.3077V1.76923ZM1.76923 1.76923V1.36923H1.36923V1.76923H1.76923ZM17.2308 2.52308H16.0769V3.32308H17.2308V2.52308ZM18.4 3.69231C18.4 3.04724 17.8758 2.52308 17.2308 2.52308V3.32308C17.434 3.32308 17.6 3.48907 17.6 3.69231H18.4ZM18.4 14.0769V3.69231H17.6V14.0769H18.4ZM16.0769 16.4C17.3582 16.4 18.4 15.3582 18.4 14.0769H17.6C17.6 14.9164 16.9164 15.6 16.0769 15.6V16.4ZM2.92308 16.4H16.0769V15.6H2.92308V16.4ZM0.6 14.0769C0.6 15.3582 1.64178 16.4 2.92308 16.4V15.6C2.08361 15.6 1.4 14.9164 1.4 14.0769H0.6ZM0.6 1.76923V14.0769H1.4V1.76923H0.6ZM1.76923 0.6C1.12416 0.6 0.6 1.12416 0.6 1.76923H1.4C1.4 1.56599 1.56599 1.4 1.76923 1.4V0.6ZM15.3077 0.6H1.76923V1.4H15.3077V0.6ZM16.4769 1.76923C16.4769 1.12416 15.9528 0.6 15.3077 0.6V1.4C15.5109 1.4 15.6769 1.56599 15.6769 1.76923H16.4769ZM16.4769 2.92308V1.76923H15.6769V2.92308H16.4769ZM16.8308 14.0769C16.8308 14.4922 16.4922 14.8308 16.0769 14.8308V15.6308C16.9341 15.6308 17.6308 14.9341 17.6308 14.0769H16.8308ZM16.8308 3.69231V14.0769H17.6308V3.69231H16.8308ZM16.0769 4.09231H17.2308V3.29231H16.0769V4.09231ZM16.4769 13.5V3.69231H15.6769V13.5H16.4769ZM16.2692 13.2923C16.3841 13.2923 16.4769 13.3851 16.4769 13.5H15.6769C15.6769 13.827 15.9423 14.0923 16.2692 14.0923V13.2923ZM17.0538 14.0769C17.0538 13.6436 16.7025 13.2923 16.2692 13.2923V14.0923C16.2607 14.0923 16.2538 14.0854 16.2538 14.0769H17.0538ZM16.2692 14.8615C16.7025 14.8615 17.0538 14.5103 17.0538 14.0769H16.2538C16.2538 14.0684 16.2607 14.0615 16.2692 14.0615V14.8615ZM14.9077 13.5C14.9077 14.2511 15.5181 14.8615 16.2692 14.8615V14.0615C15.96 14.0615 15.7077 13.8093 15.7077 13.5H14.9077ZM14.9077 1.76923V13.5H15.7077V1.76923H14.9077ZM1.76923 2.16923H15.3077V1.36923H1.76923V2.16923ZM2.16923 14.0769V1.76923H1.36923V14.0769H2.16923ZM2.92308 14.8308C2.50776 14.8308 2.16923 14.4922 2.16923 14.0769H1.36923C1.36923 14.9341 2.06593 15.6308 2.92308 15.6308V14.8308ZM16.0769 14.8308H2.92308V15.6308H16.0769V14.8308Z" fill="#CECECE"/>
</svg>
