<svg width="23" height="23" viewBox="0 0 23 23" fill="none" xmlns="http://www.w3.org/2000/svg">
<path fill-rule="evenodd" clip-rule="evenodd" d="M18.9678 6.69408L19.4028 6.25898L22 8.85617L8.85617 22L6.25898 19.4028L6.69408 18.9677C7.04956 18.6122 7.24533 18.1395 7.24533 17.6368C7.24533 17.1341 7.04956 16.6614 6.69408 16.3059C6.33855 15.9504 5.86597 15.7547 5.3632 15.7547C4.86043 15.7547 4.38777 15.9504 4.03229 16.3059L3.59719 16.741L1 14.1438L14.1438 1L16.7411 3.59719L16.306 4.03229C15.9505 4.38781 15.7547 4.86047 15.7547 5.3632C15.7547 5.86593 15.9505 6.33859 16.306 6.69408C16.6615 7.04956 17.1341 7.24533 17.6368 7.24533C18.1396 7.24533 18.6123 7.04956 18.9678 6.69408ZM8.476 17.6368C8.476 18.2593 8.29451 18.8538 7.95666 19.3601L8.85617 20.2596L20.2596 8.85617L19.3601 7.95666C18.8538 8.29451 18.2593 8.476 17.6368 8.476C16.8054 8.476 16.0237 8.15222 15.4357 7.56426C14.8478 6.97635 14.524 6.19467 14.524 5.3632C14.524 4.74075 14.7055 4.14619 15.0433 3.63993L14.1438 2.74038L2.74038 14.1438L3.63993 15.0433C4.14619 14.7055 4.74075 14.524 5.3632 14.524C6.19463 14.524 6.97635 14.8478 7.56426 15.4357C8.15222 16.0237 8.476 16.8053 8.476 17.6368Z" fill="#62687E"/>
<path d="M19.4028 6.25898L19.6857 5.97614L19.4028 5.69328L19.12 5.97615L19.4028 6.25898ZM18.9678 6.69408L19.2506 6.97692L19.2506 6.97691L18.9678 6.69408ZM22 8.85617L22.2828 9.13902L22.5657 8.85617L22.2828 8.57333L22 8.85617ZM8.85617 22L8.57333 22.2828L8.85617 22.5657L9.13902 22.2828L8.85617 22ZM6.25898 19.4028L5.97614 19.12L5.6933 19.4028L5.97614 19.6857L6.25898 19.4028ZM6.69408 18.9677L6.97692 19.2506L6.97694 19.2505L6.69408 18.9677ZM6.69408 16.3059L6.97692 16.0231L6.9769 16.0231L6.69408 16.3059ZM4.03229 16.3059L3.74944 16.0231L3.74944 16.0231L4.03229 16.3059ZM3.59719 16.741L3.31435 17.0239L3.59719 17.3067L3.88003 17.0239L3.59719 16.741ZM1 14.1438L0.717157 13.861L0.434315 14.1438L0.717157 14.4267L1 14.1438ZM14.1438 1L14.4267 0.717155L14.1438 0.434317L13.861 0.717157L14.1438 1ZM16.7411 3.59719L17.0239 3.88003L17.3067 3.59719L17.0239 3.31435L16.7411 3.59719ZM16.306 4.03229L16.0231 3.74944L16.0231 3.74946L16.306 4.03229ZM16.306 6.69408L16.0231 6.97692L16.0231 6.97693L16.306 6.69408ZM7.95666 19.3601L7.62394 19.138L7.44184 19.4109L7.67381 19.6429L7.95666 19.3601ZM8.85617 20.2596L8.57332 20.5425L8.85617 20.8253L9.13902 20.5425L8.85617 20.2596ZM20.2596 8.85617L20.5425 9.13902L20.8253 8.85617L20.5425 8.57332L20.2596 8.85617ZM19.3601 7.95666L19.6429 7.67381L19.4109 7.44184L19.138 7.62394L19.3601 7.95666ZM15.4357 7.56426L15.7186 7.28143L15.7186 7.28141L15.4357 7.56426ZM15.0433 3.63993L15.3761 3.86197L15.5582 3.58908L15.3262 3.35709L15.0433 3.63993ZM14.1438 2.74038L14.4267 2.45754L14.1438 2.17468L13.861 2.45753L14.1438 2.74038ZM2.74038 14.1438L2.45753 13.861L2.17468 14.1438L2.45754 14.4267L2.74038 14.1438ZM3.63993 15.0433L3.35709 15.3262L3.58908 15.5582L3.86197 15.3761L3.63993 15.0433ZM7.56426 15.4357L7.28141 15.7186L7.28143 15.7186L7.56426 15.4357ZM19.12 5.97615L18.6849 6.41125L19.2506 6.97691L19.6857 6.54181L19.12 5.97615ZM22.2828 8.57333L19.6857 5.97614L19.12 6.54183L21.7172 9.13902L22.2828 8.57333ZM9.13902 22.2828L22.2828 9.13902L21.7172 8.57333L8.57333 21.7172L9.13902 22.2828ZM5.97614 19.6857L8.57333 22.2828L9.13902 21.7172L6.54183 19.12L5.97614 19.6857ZM6.41123 18.6849L5.97614 19.12L6.54183 19.6857L6.97692 19.2506L6.41123 18.6849ZM6.84533 17.6368C6.84533 18.0334 6.6917 18.4044 6.41122 18.6849L6.97694 19.2505C7.40742 18.82 7.64533 18.2456 7.64533 17.6368H6.84533ZM6.41123 16.5888C6.69169 16.8692 6.84533 17.2401 6.84533 17.6368H7.64533C7.64533 17.028 7.40742 16.4536 6.97692 16.0231L6.41123 16.5888ZM5.3632 16.1547C5.75988 16.1547 6.13073 16.3083 6.41125 16.5888L6.9769 16.0231C6.54638 15.5926 5.97207 15.3547 5.3632 15.3547V16.1547ZM4.31513 16.5888C4.59559 16.3083 4.9665 16.1547 5.3632 16.1547V15.3547C4.75436 15.3547 4.17995 15.5926 3.74944 16.0231L4.31513 16.5888ZM3.88003 17.0239L4.31513 16.5888L3.74944 16.0231L3.31435 16.4582L3.88003 17.0239ZM0.717157 14.4267L3.31435 17.0239L3.88003 16.4582L1.28284 13.861L0.717157 14.4267ZM13.861 0.717157L0.717157 13.861L1.28284 14.4267L14.4267 1.28284L13.861 0.717157ZM17.0239 3.31435L14.4267 0.717155L13.861 1.28284L16.4582 3.88004L17.0239 3.31435ZM16.5888 4.31513L17.0239 3.88003L16.4582 3.31435L16.0231 3.74944L16.5888 4.31513ZM16.1547 5.3632C16.1547 4.96655 16.3083 4.59562 16.5888 4.31511L16.0231 3.74946C15.5926 4.17999 15.3547 4.75439 15.3547 5.3632H16.1547ZM16.5888 6.41123C16.3083 6.13077 16.1547 5.75985 16.1547 5.3632H15.3547C15.3547 5.97201 15.5926 6.54642 16.0231 6.97692L16.5888 6.41123ZM17.6368 6.84533C17.2402 6.84533 16.8693 6.69171 16.5888 6.41122L16.0231 6.97693C16.4537 7.40741 17.028 7.64533 17.6368 7.64533V6.84533ZM18.6849 6.41123C18.4045 6.69169 18.0335 6.84533 17.6368 6.84533V7.64533C18.2457 7.64533 18.8201 7.40743 19.2506 6.97692L18.6849 6.41123ZM8.28938 19.5821C8.67128 19.0098 8.876 18.3379 8.876 17.6368H8.076C8.076 18.1806 7.91773 18.6978 7.62394 19.138L8.28938 19.5821ZM9.13902 19.9768L8.23951 19.0772L7.67381 19.6429L8.57332 20.5425L9.13902 19.9768ZM19.9768 8.57333L8.57333 19.9768L9.13902 20.5425L20.5425 9.13902L19.9768 8.57333ZM19.0772 8.23951L19.9768 9.13902L20.5425 8.57332L19.6429 7.67381L19.0772 8.23951ZM17.6368 8.876C18.3379 8.876 19.0098 8.67128 19.5821 8.28938L19.138 7.62394C18.6978 7.91773 18.1806 8.076 17.6368 8.076V8.876ZM15.1529 7.8471C15.8158 8.51008 16.6993 8.876 17.6368 8.876V8.076C16.9115 8.076 16.2315 7.79436 15.7186 7.28143L15.1529 7.8471ZM14.124 5.3632C14.124 6.30075 14.4899 7.18418 15.1529 7.84712L15.7186 7.28141C15.2056 6.76851 14.924 6.08858 14.924 5.3632H14.124ZM14.7106 3.41789C14.3287 3.99017 14.124 4.66205 14.124 5.3632H14.924C14.924 4.81944 15.0823 4.3022 15.3761 3.86197L14.7106 3.41789ZM13.861 3.02321L14.7605 3.92277L15.3262 3.35709L14.4267 2.45754L13.861 3.02321ZM3.02322 14.4267L14.4267 3.02322L13.861 2.45753L2.45753 13.861L3.02322 14.4267ZM3.92277 14.7605L3.02321 13.861L2.45754 14.4267L3.35709 15.3262L3.92277 14.7605ZM5.3632 14.124C4.66205 14.124 3.99017 14.3287 3.41789 14.7106L3.86197 15.3761C4.3022 15.0823 4.81944 14.924 5.3632 14.924V14.124ZM7.84712 15.1529C7.18418 14.4899 6.30071 14.124 5.3632 14.124V14.924C6.08855 14.924 6.76852 15.2056 7.28141 15.7186L7.84712 15.1529ZM8.876 17.6368C8.876 16.6992 8.51008 15.8158 7.8471 15.1529L7.28143 15.7186C7.79436 16.2315 8.076 16.9114 8.076 17.6368H8.876Z" fill="#62687E"/>
<path fill-rule="evenodd" clip-rule="evenodd" d="M12.3917 9.73468L13.2619 8.8645L14.1356 9.73816L13.2654 10.6083L12.3917 9.73468Z" fill="#62687E" stroke="#62687E" stroke-width="0.8"/>
<path fill-rule="evenodd" clip-rule="evenodd" d="M10.6447 7.98682L11.5148 7.11664L12.3885 7.9903L11.5183 8.86048L10.6447 7.98682Z" fill="#62687E" stroke="#62687E" stroke-width="0.8"/>
<path fill-rule="evenodd" clip-rule="evenodd" d="M14.1392 11.482L15.0094 10.6118L15.8831 11.4855L15.0129 12.3557L14.1392 11.482Z" fill="#62687E" stroke="#62687E" stroke-width="0.8"/>
</svg>
