<svg width="29" height="26" viewBox="0 0 29 26" fill="none" xmlns="http://www.w3.org/2000/svg">
<path fill-rule="evenodd" clip-rule="evenodd" d="M11.4215 20H5.57851C5.259 20 5 20.2239 5 20.5C5 20.7761 5.259 21 5.57851 21H11.4215C11.741 21 12 20.7761 12 20.5C12 20.2239 11.741 20 11.4215 20Z" fill="#42CDE5" stroke="#42CDE5" stroke-width="0.8"/>
<path fill-rule="evenodd" clip-rule="evenodd" d="M20.4215 20H14.5785C14.259 20 14 20.2239 14 20.5C14 20.7761 14.259 21 14.5785 21H20.4215C20.7409 21 21 20.7761 21 20.5C21 20.2239 20.7409 20 20.4215 20Z" fill="#42CDE5" stroke="#42CDE5" stroke-width="0.8"/>
<path fill-rule="evenodd" clip-rule="evenodd" d="M21.375 5H5.625C5.27981 5 5 5.22385 5 5.5C5 5.77615 5.27981 6 5.625 6H21.375C21.7201 6 22 5.77615 22 5.5C22 5.22385 21.7201 5 21.375 5Z" fill="#42CDE5" stroke="#42CDE5" stroke-width="0.8"/>
<path fill-rule="evenodd" clip-rule="evenodd" d="M20.4215 8H14.5785C14.259 8 14 8.22385 14 8.5C14 8.77615 14.259 9 14.5785 9H20.4215C20.7409 9 21 8.77615 21 8.5C21 8.22385 20.7409 8 20.4215 8Z" fill="#42CDE5" stroke="#42CDE5" stroke-width="0.8"/>
<path fill-rule="evenodd" clip-rule="evenodd" d="M20.4215 11H14.5785C14.259 11 14 11.2239 14 11.5C14 11.7761 14.259 12 14.5785 12H20.4215C20.7409 12 21 11.7761 21 11.5C21 11.2239 20.7409 11 20.4215 11Z" fill="#42CDE5" stroke="#42CDE5" stroke-width="0.8"/>
<path fill-rule="evenodd" clip-rule="evenodd" d="M20.4215 14H14.5785C14.259 14 14 14.2239 14 14.5C14 14.7761 14.259 15 14.5785 15H20.4215C20.7409 15 21 14.7761 21 14.5C21 14.2239 20.7409 14 20.4215 14Z" fill="#42CDE5" stroke="#42CDE5" stroke-width="0.8"/>
<path fill-rule="evenodd" clip-rule="evenodd" d="M20.4215 17H14.5785C14.259 17 14 17.2239 14 17.5C14 17.7761 14.259 18 14.5785 18H20.4215C20.7409 18 21 17.7761 21 17.5C21 17.2239 20.7409 17 20.4215 17Z" fill="#42CDE5" stroke="#42CDE5" stroke-width="0.8"/>
<path fill-rule="evenodd" clip-rule="evenodd" d="M11.4215 17H5.57851C5.259 17 5 17.2239 5 17.5C5 17.7761 5.259 18 5.57851 18H11.4215C11.741 18 12 17.7761 12 17.5C12 17.2239 11.741 17 11.4215 17Z" fill="#42CDE5" stroke="#42CDE5" stroke-width="0.8"/>
<path fill-rule="evenodd" clip-rule="evenodd" d="M5.57851 8H11.4215C11.741 8 12 8.296 12 8.66116V15.3388C12 15.704 11.741 16 11.4215 16H5.57851C5.259 16 5 15.704 5 15.3388V8.66116C5 8.296 5.259 8 5.57851 8ZM6.15702 14.6777H10.843V9.32231H6.15702V14.6777Z" fill="#42CDE5"/>
<path d="M10.843 14.6777V15.0777H11.243V14.6777H10.843ZM6.15702 14.6777H5.75702V15.0777H6.15702V14.6777ZM10.843 9.32231H11.243V8.92231H10.843V9.32231ZM6.15702 9.32231V8.92231H5.75702V9.32231H6.15702ZM11.4215 7.6H5.57851V8.4H11.4215V7.6ZM12.4 8.66116C12.4 8.12693 12.0104 7.6 11.4215 7.6V8.4C11.4521 8.4 11.4912 8.41322 11.5295 8.45705C11.5686 8.50166 11.6 8.57262 11.6 8.66116H12.4ZM12.4 15.3388V8.66116H11.6V15.3388H12.4ZM11.4215 16.4C12.0104 16.4 12.4 15.8731 12.4 15.3388H11.6C11.6 15.4274 11.5686 15.4983 11.5295 15.543C11.4912 15.5868 11.4521 15.6 11.4215 15.6V16.4ZM5.57851 16.4H11.4215V15.6H5.57851V16.4ZM4.6 15.3388C4.6 15.8731 4.98958 16.4 5.57851 16.4V15.6C5.54794 15.6 5.50882 15.5868 5.47047 15.543C5.43143 15.4983 5.4 15.4274 5.4 15.3388H4.6ZM4.6 8.66116V15.3388H5.4V8.66116H4.6ZM5.57851 7.6C4.98958 7.6 4.6 8.12693 4.6 8.66116H5.4C5.4 8.57262 5.43143 8.50166 5.47047 8.45705C5.50882 8.41322 5.54794 8.4 5.57851 8.4V7.6ZM10.843 14.2777H6.15702V15.0777H10.843V14.2777ZM10.443 9.32231V14.6777H11.243V9.32231H10.443ZM6.15702 9.72231H10.843V8.92231H6.15702V9.72231ZM6.55702 14.6777V9.32231H5.75702V14.6777H6.55702Z" fill="#42CDE5"/>
<path fill-rule="evenodd" clip-rule="evenodd" d="M24.9457 4.07692H26.7783C27.4519 4.07692 28 4.62905 28 5.30769V21.9231C28 23.6197 26.6298 25 24.9457 25H4.0543C2.37016 25 1 23.6197 1 21.9231V2.23077C1 1.55212 1.54806 1 2.22172 1H23.724C24.3976 1 24.9457 1.55212 24.9457 2.23077V4.07692ZM24.9457 23.7692C25.9562 23.7692 26.7783 22.941 26.7783 21.9231V5.30769H24.9457V21C24.9457 21.1697 25.0827 21.3077 25.2511 21.3077C25.5884 21.3077 25.862 21.5832 25.862 21.9231C25.862 22.263 25.5884 22.5385 25.2511 22.5385C24.4091 22.5385 23.724 21.8483 23.724 21V2.23077H2.22172V21.9231C2.22172 22.941 3.04381 23.7692 4.0543 23.7692H24.9457Z" fill="#42CDE5"/>
<path d="M24.9457 4.07692H24.5457V4.47692H24.9457V4.07692ZM26.7783 5.30769H27.1783V4.90769H26.7783V5.30769ZM24.9457 5.30769V4.90769H24.5457V5.30769H24.9457ZM23.724 2.23077H24.124V1.83077H23.724V2.23077ZM2.22172 2.23077V1.83077H1.82172V2.23077H2.22172ZM26.7783 3.67692H24.9457V4.47692H26.7783V3.67692ZM28.4 5.30769C28.4 4.41092 27.6756 3.67692 26.7783 3.67692V4.47692C27.2282 4.47692 27.6 4.84717 27.6 5.30769H28.4ZM28.4 21.9231V5.30769H27.6V21.9231H28.4ZM24.9457 25.4C26.8535 25.4 28.4 23.8378 28.4 21.9231H27.6C27.6 23.4016 26.4062 24.6 24.9457 24.6V25.4ZM4.0543 25.4H24.9457V24.6H4.0543V25.4ZM0.6 21.9231C0.6 23.8378 2.14647 25.4 4.0543 25.4V24.6C2.59385 24.6 1.4 23.4016 1.4 21.9231H0.6ZM0.6 2.23077V21.9231H1.4V2.23077H0.6ZM2.22172 0.6C1.32437 0.6 0.6 1.334 0.6 2.23077H1.4C1.4 1.77025 1.77176 1.4 2.22172 1.4V0.6ZM23.724 0.6H2.22172V1.4H23.724V0.6ZM25.3457 2.23077C25.3457 1.334 24.6213 0.6 23.724 0.6V1.4C24.1739 1.4 24.5457 1.77025 24.5457 2.23077H25.3457ZM25.3457 4.07692V2.23077H24.5457V4.07692H25.3457ZM26.3783 21.9231C26.3783 22.7229 25.7325 23.3692 24.9457 23.3692V24.1692C26.1799 24.1692 27.1783 23.1592 27.1783 21.9231H26.3783ZM26.3783 5.30769V21.9231H27.1783V5.30769H26.3783ZM24.9457 5.70769H26.7783V4.90769H24.9457V5.70769ZM25.3457 21V5.30769H24.5457V21H25.3457ZM25.2511 20.9077C25.3064 20.9077 25.3457 20.9515 25.3457 21H24.5457C24.5457 21.3878 24.859 21.7077 25.2511 21.7077V20.9077ZM26.262 21.9231C26.262 21.365 25.8121 20.9077 25.2511 20.9077V21.7077C25.3648 21.7077 25.462 21.8014 25.462 21.9231H26.262ZM25.2511 22.9385C25.8121 22.9385 26.262 22.4811 26.262 21.9231H25.462C25.462 22.0448 25.3648 22.1385 25.2511 22.1385V22.9385ZM23.324 21C23.324 22.0664 24.1854 22.9385 25.2511 22.9385V22.1385C24.6328 22.1385 24.124 21.6302 24.124 21H23.324ZM23.324 2.23077V21H24.124V2.23077H23.324ZM2.22172 2.63077H23.724V1.83077H2.22172V2.63077ZM2.62172 21.9231V2.23077H1.82172V21.9231H2.62172ZM4.0543 23.3692C3.26751 23.3692 2.62172 22.7229 2.62172 21.9231H1.82172C1.82172 23.1592 2.82012 24.1692 4.0543 24.1692V23.3692ZM24.9457 23.3692H4.0543V24.1692H24.9457V23.3692Z" fill="#42CDE5"/>
</svg>
