<svg width="27" height="21" viewBox="0 0 27 21" fill="none" xmlns="http://www.w3.org/2000/svg">
<path d="M5.42285 5.30918L23.0967 10.2476C22.9629 5.06234 18.7175 0.9 13.5 0.9C10.1117 0.9 7.13247 2.65482 5.42285 5.30918Z" stroke="#62687E" stroke-width="1.8" stroke-linejoin="round"/>
<path d="M21 9L23.1272 11.1272L25.2544 9" stroke="#62687E" stroke-width="1.8" stroke-linecap="round" stroke-linejoin="round"/>
<path d="M21.5771 15.6908L3.90327 10.7524C4.03709 15.9377 8.28247 20.1 13.5 20.1C16.8883 20.1 19.8675 18.3452 21.5771 15.6908Z" stroke="#62687E" stroke-width="1.8" stroke-linejoin="round"/>
<path d="M6 12L3.8728 9.8728L1.74561 12" stroke="#62687E" stroke-width="1.8" stroke-linecap="round" stroke-linejoin="round"/>
<path fill-rule="evenodd" clip-rule="evenodd" d="M15.7549 13.9348C15.2666 14.2682 14.7285 14.4375 14.1562 14.4375C12.9474 14.4375 11.9001 13.6395 11.3317 12.4688H13.5C13.8623 12.4688 14.1562 12.1748 14.1562 11.8125C14.1562 11.4502 13.8623 11.1562 13.5 11.1562H10.9301C10.8999 10.9423 10.875 10.7244 10.875 10.5C10.875 10.2756 10.8999 10.0577 10.9301 9.84375H14.1562C14.5185 9.84375 14.8125 9.54975 14.8125 9.1875C14.8125 8.82525 14.5185 8.53125 14.1562 8.53125H11.3317C11.9001 7.3605 12.9474 6.5625 14.1562 6.5625C14.7285 6.5625 15.2666 6.73181 15.7549 7.06519C16.0541 7.26862 16.4636 7.19381 16.6671 6.89325C16.8718 6.594 16.7944 6.18581 16.4951 5.98106C15.7942 5.50331 14.9858 5.25 14.1562 5.25C12.2334 5.25 10.5876 6.61106 9.90375 8.53125H8.90625C8.544 8.53125 8.25 8.82525 8.25 9.1875C8.25 9.54975 8.544 9.84375 8.90625 9.84375H9.62025C9.59662 10.0616 9.5625 10.2756 9.5625 10.5C9.5625 10.7244 9.59662 10.9384 9.62025 11.1562H8.90625C8.544 11.1562 8.25 11.4502 8.25 11.8125C8.25 12.1748 8.544 12.4688 8.90625 12.4688H9.90375C10.5876 14.3889 12.2334 15.75 14.1562 15.75C14.9858 15.75 15.7942 15.4967 16.4951 15.0189C16.7944 14.8142 16.8718 14.406 16.6671 14.1067C16.4636 13.8075 16.0541 13.7314 15.7549 13.9348Z" fill="#62687E" stroke="#62687E" stroke-width="0.8"/>
</svg>
