<svg width="23" height="23" viewBox="0 0 23 23" fill="none" xmlns="http://www.w3.org/2000/svg">
<path fill-rule="evenodd" clip-rule="evenodd" d="M19.4397 9.04053L20.9127 9.29043C21.5397 9.39565 21.9956 9.93489 21.9868 10.5706V12.4163C21.9868 13.052 21.5309 13.5913 20.904 13.6965L19.4309 13.942C19.2818 14.433 19.0802 14.9109 18.839 15.3712L19.7071 16.59C20.0754 17.1073 20.014 17.8132 19.5668 18.2604L18.2603 19.5668C18.0148 19.8123 17.6904 19.9483 17.344 19.9483C17.0722 19.9483 16.8092 19.865 16.59 19.7071L15.3756 18.8391C14.9196 19.0802 14.4418 19.2775 13.9463 19.4309L13.6965 20.904C13.5912 21.5309 13.052 21.9869 12.4163 21.9869H10.5662C9.93048 21.9869 9.39123 21.5309 9.28601 20.904L9.0405 19.4309C8.56263 19.2819 8.09791 19.0933 7.65511 18.861L6.42317 19.7378C6.20397 19.8956 5.9453 19.9789 5.67349 19.9789C5.32714 19.9789 5.00271 19.843 4.7572 19.5975L3.45073 18.2911C2.99917 17.8439 2.94217 17.138 3.31044 16.6207L4.17411 15.4194C3.9286 14.9635 3.72693 14.4856 3.57349 13.9946L2.08288 13.7403C1.45595 13.6351 1 13.0959 1 12.4602V10.6144C1 9.97874 1.45595 9.43949 2.08288 9.33427L3.53841 9.08876C3.68747 8.59335 3.88038 8.11548 4.1215 7.65515L3.24468 6.4232C2.87641 5.90588 2.93779 5.20003 3.38497 4.75285L4.69582 3.44638C4.93695 3.20087 5.26576 3.06496 5.61211 3.06496C5.88392 3.06496 6.14697 3.14826 6.36618 3.30608L7.57182 4.17414C8.02777 3.92863 8.50564 3.72696 8.99666 3.57352L9.25094 2.08291C9.35616 1.45598 9.89541 1.00003 10.5311 1.00003H12.3768C13.0125 1.00003 13.5518 1.45598 13.657 2.08291L13.9025 3.53844C14.4154 3.69189 14.9109 3.89794 15.3843 4.14784L16.6031 3.27978C16.8223 3.12195 17.081 3.03865 17.3528 3.03865C17.6992 3.03865 18.0236 3.17456 18.2691 3.42007L19.5756 4.72654C20.0271 5.17373 20.0841 5.87957 19.7159 6.3969L18.8478 7.6113C19.0889 8.06725 19.2862 8.54512 19.4397 9.04053ZM20.7154 12.5303C20.7724 12.5215 20.8119 12.4733 20.8119 12.4163H20.8163V10.5706C20.8163 10.5136 20.7768 10.4654 20.7198 10.4566L18.8785 10.1453C18.6505 10.1103 18.462 9.93928 18.405 9.7113C18.2384 9.06684 17.9841 8.44867 17.6422 7.87435C17.5238 7.67268 17.5326 7.4184 17.6685 7.22988L18.7514 5.70859C18.782 5.66036 18.7777 5.59899 18.7382 5.55953L17.4317 4.25306C17.401 4.22237 17.366 4.21798 17.3484 4.21798C17.3265 4.21798 17.3046 4.22675 17.2827 4.23991L15.7701 5.32717C15.5772 5.46308 15.3273 5.47185 15.1257 5.35348C14.5382 5.00713 13.9069 4.74846 13.2449 4.58187C13.0169 4.52487 12.8459 4.33636 12.8065 4.104L12.4996 2.27581C12.4908 2.21882 12.4426 2.17936 12.3856 2.17936H10.5399C10.4829 2.17936 10.4347 2.21882 10.4259 2.27581L10.1102 4.1303C10.0708 4.35828 9.89979 4.54241 9.6762 4.60379C9.03173 4.77039 8.41357 5.03343 7.84363 5.3754C7.64196 5.49377 7.38768 5.485 7.19478 5.34909L5.68225 4.27059C5.66472 4.25744 5.6428 4.24867 5.61649 4.24867C5.59457 4.24867 5.56388 4.25306 5.53319 4.28375L4.22672 5.59022C4.18726 5.62968 4.18288 5.69544 4.21357 5.73928L5.30522 7.27373C5.44113 7.46224 5.45428 7.71214 5.33591 7.91381C4.99833 8.48813 4.74843 9.11068 4.58622 9.75515C4.52923 9.98312 4.34071 10.1541 4.10835 10.1936L2.28017 10.5004C2.22317 10.5092 2.18372 10.5574 2.18372 10.6144V12.4602C2.18372 12.5171 2.22317 12.5654 2.28017 12.5741L4.13466 12.8898C4.36263 12.9293 4.54676 13.1002 4.60814 13.3238C4.77474 13.9683 5.03779 14.5865 5.37975 15.1564C5.49812 15.3581 5.48935 15.6123 5.35344 15.8052L4.27495 17.3178C4.24426 17.366 4.24864 17.4274 4.2881 17.4668L5.59457 18.7733C5.62526 18.804 5.66033 18.8084 5.67787 18.8084C5.69979 18.8084 5.72171 18.7996 5.74363 18.7865L7.27808 17.6948C7.37891 17.6203 7.50167 17.5852 7.62004 17.5852C7.72088 17.5852 7.8261 17.6115 7.91816 17.6641C8.48372 17.9885 9.08873 18.2384 9.71566 18.4007C9.93925 18.4577 10.1102 18.6418 10.1497 18.8741L10.4566 20.7155C10.4653 20.7725 10.5136 20.8119 10.5706 20.8119H12.4163C12.4733 20.8119 12.5215 20.7725 12.5303 20.7155L12.8415 18.8741C12.8766 18.6462 13.0476 18.4577 13.2756 18.4007C13.92 18.2341 14.5382 17.9798 15.1125 17.6378C15.3142 17.5194 15.5685 17.5282 15.757 17.6641L17.2783 18.747C17.2958 18.7602 17.3177 18.7689 17.344 18.7689C17.366 18.7689 17.3967 18.7645 17.4273 18.7339L18.7338 17.4274C18.7733 17.3879 18.7777 17.3222 18.747 17.2783L17.6641 15.7526C17.5282 15.5597 17.5194 15.3098 17.6378 15.1082C17.9797 14.5339 18.234 13.9157 18.4006 13.2712C18.4576 13.0476 18.6418 12.8766 18.8741 12.8372L20.7154 12.5303Z" fill="#62687E"/>
<path d="M20.9127 9.29043L20.8458 9.68479L20.8465 9.68491L20.9127 9.29043ZM19.4397 9.04053L19.0576 9.15888L19.1303 9.39377L19.3728 9.4349L19.4397 9.04053ZM21.9868 10.5706L21.5868 10.5651V10.5706H21.9868ZM20.904 13.6965L20.9697 14.091L20.9702 14.091L20.904 13.6965ZM19.4309 13.942L19.3651 13.5474L19.1203 13.5882L19.0481 13.8258L19.4309 13.942ZM18.839 15.3712L18.4847 15.1856L18.3707 15.4032L18.5132 15.6033L18.839 15.3712ZM19.7071 16.59L20.033 16.358L20.0329 16.358L19.7071 16.59ZM16.59 19.7071L16.8237 19.3825L16.8226 19.3817L16.59 19.7071ZM15.3756 18.8391L15.6082 18.5137L15.4071 18.3699L15.1886 18.4855L15.3756 18.8391ZM13.9463 19.4309L13.828 19.0488L13.5931 19.1216L13.552 19.364L13.9463 19.4309ZM13.6965 20.904L13.3021 20.8371L13.302 20.8378L13.6965 20.904ZM9.28601 20.904L8.89145 20.9698L8.89153 20.9702L9.28601 20.904ZM9.0405 19.4309L9.43506 19.3652L9.39459 19.1224L9.15961 19.0491L9.0405 19.4309ZM7.65511 18.861L7.84098 18.5068L7.62338 18.3926L7.42317 18.5351L7.65511 18.861ZM6.42317 19.7378L6.19122 19.4119L6.18945 19.4132L6.42317 19.7378ZM4.7572 19.5975L5.04005 19.3147L5.04005 19.3147L4.7572 19.5975ZM3.45073 18.2911L3.73358 18.0082L3.73219 18.0068L3.45073 18.2911ZM3.31044 16.6207L2.98566 16.3872L2.98457 16.3887L3.31044 16.6207ZM4.17411 15.4194L4.49888 15.6529L4.64484 15.4499L4.5263 15.2298L4.17411 15.4194ZM3.57349 13.9946L3.95528 13.8753L3.88221 13.6415L3.64075 13.6003L3.57349 13.9946ZM2.08288 13.7403L2.15014 13.346L2.14909 13.3458L2.08288 13.7403ZM2.08288 9.33427L2.14909 9.72875L2.14941 9.7287L2.08288 9.33427ZM3.53841 9.08876L3.60494 9.48318L3.84988 9.44187L3.92145 9.20401L3.53841 9.08876ZM4.1215 7.65515L4.47584 7.84075L4.58977 7.62324L4.44739 7.4232L4.1215 7.65515ZM3.24468 6.4232L3.57056 6.19126L3.57054 6.19123L3.24468 6.4232ZM3.38497 4.75285L3.1026 4.46953L3.10213 4.47001L3.38497 4.75285ZM4.69582 3.44638L4.97821 3.72971L4.9812 3.72666L4.69582 3.44638ZM6.36618 3.30608L6.5999 2.98147L6.5999 2.98147L6.36618 3.30608ZM7.57182 4.17414L7.33809 4.49876L7.54115 4.64496L7.76146 4.52633L7.57182 4.17414ZM8.99666 3.57352L9.11597 3.95531L9.34977 3.88225L9.39096 3.64078L8.99666 3.57352ZM9.25094 2.08291L9.64524 2.15018L9.64542 2.14912L9.25094 2.08291ZM13.657 2.08291L13.2625 2.14912L13.2626 2.14944L13.657 2.08291ZM13.9025 3.53844L13.5081 3.60497L13.5495 3.85035L13.7879 3.92166L13.9025 3.53844ZM15.3843 4.14784L15.1976 4.50159L15.4156 4.61664L15.6164 4.47365L15.3843 4.14784ZM16.6031 3.27978L16.8352 3.60559L16.8369 3.60439L16.6031 3.27978ZM18.2691 3.42007L18.5519 3.13723L18.5519 3.13723L18.2691 3.42007ZM19.5756 4.72654L19.2927 5.00939L19.2941 5.01076L19.5756 4.72654ZM19.7159 6.3969L20.0413 6.62951L20.0417 6.62887L19.7159 6.3969ZM18.8478 7.6113L18.5224 7.3787L18.3787 7.57979L18.4942 7.7983L18.8478 7.6113ZM20.8119 12.4163V12.0163H20.4119V12.4163H20.8119ZM20.7154 12.5303L20.6546 12.1349L20.6497 12.1357L20.7154 12.5303ZM20.8163 12.4163V12.8163H21.2163V12.4163H20.8163ZM20.7198 10.4566L20.6532 10.8511L20.659 10.852L20.7198 10.4566ZM18.8785 10.1453L18.9452 9.75089L18.9393 9.74998L18.8785 10.1453ZM18.405 9.7113L18.7931 9.61429L18.7923 9.61119L18.405 9.7113ZM17.6422 7.87435L17.2972 8.07684L17.2985 8.07899L17.6422 7.87435ZM17.6685 7.22988L17.993 7.46381L17.9943 7.46185L17.6685 7.22988ZM18.7514 5.70859L19.0772 5.94055L19.0832 5.9321L19.0888 5.92334L18.7514 5.70859ZM18.7382 5.55953L19.021 5.27669L19.021 5.27669L18.7382 5.55953ZM17.4317 4.25306L17.7146 3.97021L17.7146 3.97021L17.4317 4.25306ZM17.2827 4.23991L17.0769 3.89692L17.0627 3.90544L17.0492 3.91511L17.2827 4.23991ZM15.7701 5.32717L16.0005 5.65418L16.0036 5.65196L15.7701 5.32717ZM15.1257 5.35348L14.9225 5.69805L14.9232 5.69844L15.1257 5.35348ZM13.2449 4.58187L13.3425 4.19396L13.3419 4.19381L13.2449 4.58187ZM12.8065 4.104L12.412 4.17022L12.4121 4.17096L12.8065 4.104ZM12.4996 2.27581L12.1042 2.33664L12.1051 2.34203L12.4996 2.27581ZM10.4259 2.27581L10.8203 2.34294L10.8212 2.33663L10.4259 2.27581ZM10.1102 4.1303L10.5044 4.19852L10.5046 4.19742L10.1102 4.1303ZM9.6762 4.60379L9.77632 4.9911L9.78209 4.98952L9.6762 4.60379ZM7.84363 5.3754L8.04612 5.72038L8.04943 5.71839L7.84363 5.3754ZM7.19478 5.34909L6.96255 5.67478L6.9644 5.67608L7.19478 5.34909ZM5.68225 4.27059L5.44219 4.59069L5.45003 4.59628L5.68225 4.27059ZM5.53319 4.28375L5.81604 4.56659L5.81604 4.56659L5.53319 4.28375ZM4.21357 5.73928L3.88587 5.96867L3.88764 5.97116L4.21357 5.73928ZM5.30522 7.27373L4.97928 7.50561L4.98075 7.50765L5.30522 7.27373ZM5.33591 7.91381L5.68075 8.1165L5.68087 8.11629L5.33591 7.91381ZM4.58622 9.75515L4.19832 9.65751L4.19816 9.65813L4.58622 9.75515ZM4.10835 10.1936L4.17457 10.588L4.17532 10.5879L4.10835 10.1936ZM2.28017 10.5004L2.34099 10.8958L2.34639 10.8949L2.28017 10.5004ZM2.28017 12.5741L2.3473 12.1798L2.34099 12.1788L2.28017 12.5741ZM4.13466 12.8898L4.20287 12.4957L4.20178 12.4955L4.13466 12.8898ZM4.60814 13.3238L4.99545 13.2237L4.99387 13.2179L4.60814 13.3238ZM5.37975 15.1564L5.72473 14.9539L5.72275 14.9506L5.37975 15.1564ZM5.35344 15.8052L5.67913 16.0375L5.68044 16.0356L5.35344 15.8052ZM4.27495 17.3178L3.94926 17.0855L3.94314 17.0941L3.93748 17.103L4.27495 17.3178ZM4.2881 17.4668L4.57094 17.184L4.57094 17.184L4.2881 17.4668ZM5.59457 18.7733L5.31173 19.0562L5.31174 19.0562L5.59457 18.7733ZM5.74363 18.7865L5.94942 19.1295L5.9628 19.1214L5.97551 19.1124L5.74363 18.7865ZM7.27808 17.6948L7.51 18.0208L7.51583 18.0165L7.27808 17.6948ZM7.91816 17.6641L8.1172 17.3172L8.11662 17.3168L7.91816 17.6641ZM9.71566 18.4007L9.61546 18.7879L9.61686 18.7883L9.71566 18.4007ZM10.1497 18.8741L10.5442 18.8084L10.544 18.8072L10.1497 18.8741ZM10.4566 20.7155L10.852 20.6547L10.8511 20.6497L10.4566 20.7155ZM12.5303 20.7155L12.1358 20.6488L12.1349 20.6547L12.5303 20.7155ZM12.8415 18.8741L13.236 18.9408L13.2369 18.935L12.8415 18.8741ZM13.2756 18.4007L13.3726 18.7887L13.3757 18.7879L13.2756 18.4007ZM15.1125 17.6378L14.91 17.2928L14.9079 17.2941L15.1125 17.6378ZM15.757 17.6641L15.5231 17.9886L15.525 17.99L15.757 17.6641ZM17.2783 18.747L17.5184 18.4269L17.5102 18.4211L17.2783 18.747ZM17.4273 18.7339L17.7102 19.0167L17.7102 19.0167L17.4273 18.7339ZM18.7338 17.4274L18.451 17.1445L18.451 17.1445L18.7338 17.4274ZM18.747 17.2783L19.0747 17.0489L19.0732 17.0468L18.747 17.2783ZM17.6641 15.7526L17.3371 15.983L17.3379 15.9842L17.6641 15.7526ZM17.6378 15.1082L17.2941 14.9035L17.2928 14.9057L17.6378 15.1082ZM18.4006 13.2712L18.7879 13.3713L18.7882 13.37L18.4006 13.2712ZM18.8741 12.8372L18.8084 12.4426L18.8071 12.4428L18.8741 12.8372ZM20.9796 8.89606L19.5066 8.64617L19.3728 9.4349L20.8458 9.68479L20.9796 8.89606ZM22.3868 10.5761C22.3983 9.74027 21.7979 9.03339 20.9789 8.89594L20.8465 9.68491C21.2814 9.7579 21.5929 10.1295 21.5869 10.5651L22.3868 10.5761ZM22.3868 12.4163V10.5706H21.5868V12.4163H22.3868ZM20.9702 14.091C21.7899 13.9534 22.3868 13.2472 22.3868 12.4163H21.5868C21.5868 12.8568 21.2719 13.2291 20.8378 13.302L20.9702 14.091ZM19.4967 14.3366L20.9697 14.091L20.8382 13.3019L19.3651 13.5474L19.4967 14.3366ZM19.1934 15.5568C19.4447 15.0771 19.6565 14.576 19.8136 14.0582L19.0481 13.8258C18.9072 14.29 18.7157 14.7447 18.4847 15.1856L19.1934 15.5568ZM20.0329 16.358L19.1648 15.1392L18.5132 15.6033L19.3813 16.8221L20.0329 16.358ZM19.8496 18.5432C20.4343 17.9586 20.515 17.0352 20.033 16.358L19.3812 16.822C19.6357 17.1795 19.5937 17.6678 19.284 17.9775L19.8496 18.5432ZM18.5432 19.8497L19.8496 18.5432L19.284 17.9775L17.9775 19.284L18.5432 19.8497ZM17.344 20.3483C17.7978 20.3483 18.2236 20.1692 18.5432 19.8497L17.9775 19.284C17.806 19.4555 17.583 19.5483 17.344 19.5483V20.3483ZM16.3563 20.0317C16.645 20.2396 16.9902 20.3483 17.344 20.3483V19.5483C17.1543 19.5483 16.9734 19.4903 16.8237 19.3825L16.3563 20.0317ZM15.143 19.1645L16.3574 20.0325L16.8226 19.3817L15.6082 18.5137L15.143 19.1645ZM14.0647 19.813C14.5833 19.6524 15.0842 19.4457 15.5626 19.1927L15.1886 18.4855C14.7551 18.7147 14.3002 18.9026 13.828 19.0488L14.0647 19.813ZM14.0908 20.9709L14.3407 19.4978L13.552 19.364L13.3021 20.8371L14.0908 20.9709ZM12.4163 22.3869C13.2472 22.3869 13.9534 21.79 14.0909 20.9702L13.302 20.8378C13.2291 21.2719 12.8568 21.5869 12.4163 21.5869V22.3869ZM10.5662 22.3869H12.4163V21.5869H10.5662V22.3869ZM8.89153 20.9702C9.02911 21.79 9.73527 22.3869 10.5662 22.3869V21.5869C10.1257 21.5869 9.75335 21.2719 9.6805 20.8378L8.89153 20.9702ZM8.64594 19.4967L8.89146 20.9698L9.68057 20.8382L9.43506 19.3652L8.64594 19.4967ZM7.46925 19.2152C7.93516 19.4597 8.42244 19.6571 8.92139 19.8128L9.15961 19.0491C8.70282 18.9066 8.26066 18.727 7.84098 18.5068L7.46925 19.2152ZM6.65512 20.0637L7.88706 19.1869L7.42317 18.5351L6.19123 19.4119L6.65512 20.0637ZM5.67349 20.3789C6.02878 20.3789 6.36928 20.2695 6.6569 20.0624L6.18945 19.4132C6.03865 19.5218 5.86183 19.5789 5.67349 19.5789V20.3789ZM4.47436 19.8804C4.79393 20.1999 5.2197 20.3789 5.67349 20.3789V19.5789C5.43458 19.5789 5.2115 19.4861 5.04005 19.3147L4.47436 19.8804ZM3.16789 18.5739L4.47436 19.8804L5.04005 19.3147L3.73357 18.0082L3.16789 18.5739ZM2.98457 16.3887C2.50383 17.0641 2.57694 17.9887 3.16927 18.5753L3.73219 18.0068C3.42139 17.6991 3.38051 17.212 3.6363 16.8527L2.98457 16.3887ZM3.84934 15.1859L2.98567 16.3872L3.63521 16.8542L4.49888 15.6529L3.84934 15.1859ZM3.19169 14.1139C3.35284 14.6296 3.56449 15.131 3.82192 15.6091L4.5263 15.2298C4.29272 14.796 4.10102 14.3417 3.95528 13.8753L3.19169 14.1139ZM2.01562 14.1346L3.50622 14.3889L3.64075 13.6003L2.15014 13.346L2.01562 14.1346ZM0.6 12.4602C0.6 13.2911 1.19692 13.9972 2.01667 14.1348L2.14909 13.3458C1.71498 13.273 1.4 12.9006 1.4 12.4602H0.6ZM0.6 10.6144V12.4602H1.4V10.6144H0.6ZM2.01667 8.93979C1.19692 9.07737 0.6 9.78352 0.6 10.6144H1.4C1.4 10.1739 1.71498 9.80161 2.14909 9.72875L2.01667 8.93979ZM3.47188 8.69433L2.01635 8.93984L2.14941 9.7287L3.60494 9.48318L3.47188 8.69433ZM3.76717 7.46954C3.51383 7.95319 3.31148 8.4547 3.15538 8.97351L3.92145 9.20401C4.06347 8.732 4.24692 8.27777 4.47584 7.84075L3.76717 7.46954ZM2.91879 6.65515L3.79562 7.88709L4.44739 7.4232L3.57056 6.19126L2.91879 6.65515ZM3.10213 4.47001C2.51749 5.05464 2.43676 5.97802 2.91881 6.65518L3.57054 6.19123C3.31605 5.83374 3.35808 5.34542 3.66781 5.03569L3.10213 4.47001ZM4.41346 3.16306L3.1026 4.46953L3.66734 5.03616L4.97819 3.72969L4.41346 3.16306ZM5.61211 2.66496C5.16041 2.66496 4.72816 2.8426 4.41045 3.16609L4.9812 3.72666C5.14574 3.55913 5.37112 3.46496 5.61211 3.46496V2.66496ZM6.5999 2.98147C6.31115 2.77357 5.96598 2.66496 5.61211 2.66496V3.46496C5.80187 3.46496 5.9828 3.52294 6.13246 3.6307L6.5999 2.98147ZM7.80554 3.84953L6.5999 2.98147L6.13246 3.6307L7.33809 4.49876L7.80554 3.84953ZM8.87735 3.19172C8.36168 3.35287 7.86028 3.56452 7.38218 3.82195L7.76146 4.52633C8.19526 4.29275 8.6496 4.10105 9.11597 3.95531L8.87735 3.19172ZM8.85664 2.01565L8.60236 3.50625L9.39096 3.64078L9.64524 2.15018L8.85664 2.01565ZM10.5311 0.600031C9.70019 0.600031 8.99404 1.19696 8.85646 2.0167L9.64542 2.14912C9.71828 1.71501 10.0906 1.40003 10.5311 1.40003V0.600031ZM12.3768 0.600031H10.5311V1.40003H12.3768V0.600031ZM14.0515 2.0167C13.9139 1.19695 13.2077 0.600031 12.3768 0.600031V1.40003C12.8173 1.40003 13.1897 1.71501 13.2625 2.14912L14.0515 2.0167ZM14.2969 3.47191L14.0514 2.01638L13.2626 2.14944L13.5081 3.60497L14.2969 3.47191ZM15.571 3.79408C15.076 3.53281 14.5565 3.31658 14.0171 3.15522L13.7879 3.92166C14.2744 4.0672 14.7457 4.26307 15.1976 4.50159L15.571 3.79408ZM16.3711 2.95397L15.1523 3.82203L15.6164 4.47365L16.8352 3.60559L16.3711 2.95397ZM17.3528 2.63865C16.9975 2.63865 16.657 2.74808 16.3694 2.95517L16.8369 3.60439C16.9877 3.49582 17.1645 3.43865 17.3528 3.43865V2.63865ZM18.5519 3.13723C18.2324 2.81766 17.8066 2.63865 17.3528 2.63865V3.43865C17.5917 3.43865 17.8148 3.53146 17.9863 3.70292L18.5519 3.13723ZM19.8584 4.4437L18.5519 3.13723L17.9863 3.70292L19.2927 5.00939L19.8584 4.4437ZM20.0417 6.62887C20.5225 5.95355 20.4494 5.02891 19.857 4.44232L19.2941 5.01076C19.6049 5.31854 19.6458 5.8056 19.39 6.16493L20.0417 6.62887ZM19.1732 7.84391L20.0413 6.62951L19.3905 6.16429L18.5224 7.3787L19.1732 7.84391ZM19.8218 8.92218C19.6611 8.40361 19.4544 7.90271 19.2014 7.42431L18.4942 7.7983C18.7235 8.2318 18.9113 8.68664 19.0576 9.15888L19.8218 8.92218ZM20.4119 12.4163C20.4119 12.2841 20.5084 12.1574 20.6546 12.135L20.7763 12.9257C21.0365 12.8856 21.2119 12.6625 21.2119 12.4163H20.4119ZM20.8163 12.0163H20.8119V12.8163H20.8163V12.0163ZM20.4163 10.5706V12.4163H21.2163V10.5706H20.4163ZM20.659 10.852C20.5128 10.8295 20.4163 10.7028 20.4163 10.5706H21.2163C21.2163 10.3244 21.0408 10.1013 20.7807 10.0613L20.659 10.852ZM18.8118 10.5397L20.6532 10.851L20.7865 10.0622L18.9452 9.75093L18.8118 10.5397ZM18.017 9.80832C18.1128 10.1918 18.4297 10.481 18.8177 10.5407L18.9393 9.74998C18.8713 9.73952 18.8112 9.68676 18.7931 9.61429L18.017 9.80832ZM17.2985 8.07899C17.6204 8.61968 17.8603 9.2025 18.0177 9.81141L18.7923 9.61119C18.6165 8.93117 18.3478 8.27767 17.9859 7.66971L17.2985 8.07899ZM17.344 6.99596C17.1125 7.31711 17.1012 7.74286 17.2972 8.07683L17.9871 7.67187C17.9464 7.6025 17.9527 7.51969 17.9929 7.4638L17.344 6.99596ZM18.4255 5.47663L17.3426 6.99792L17.9943 7.46185L19.0772 5.94055L18.4255 5.47663ZM18.4554 5.84237C18.3498 5.7368 18.3537 5.58842 18.4139 5.49384L19.0888 5.92334C19.2104 5.73231 19.2055 5.46117 19.021 5.27669L18.4554 5.84237ZM17.1489 4.5359L18.4554 5.84237L19.021 5.27669L17.7146 3.97021L17.1489 4.5359ZM17.3484 4.61798C17.3043 4.61798 17.2197 4.60668 17.1489 4.5359L17.7146 3.97021C17.5824 3.83806 17.4276 3.81798 17.3484 3.81798V4.61798ZM17.4885 4.5829C17.4835 4.58586 17.4695 4.59394 17.4477 4.60156C17.4253 4.60939 17.3912 4.61798 17.3484 4.61798V3.81798C17.2217 3.81798 17.1257 3.86763 17.0769 3.89692L17.4885 4.5829ZM16.0036 5.65196L17.5161 4.5647L17.0492 3.91511L15.5367 5.00238L16.0036 5.65196ZM14.9232 5.69844C15.2589 5.8955 15.6782 5.88129 16.0005 5.65416L15.5398 5.00018C15.4763 5.04487 15.3958 5.04819 15.3282 5.00851L14.9232 5.69844ZM13.1473 4.96977C13.7724 5.1271 14.3682 5.37123 14.9225 5.69805L15.3288 5.0089C14.7082 4.64303 14.0414 4.36983 13.3425 4.19396L13.1473 4.96977ZM12.4121 4.17096C12.4775 4.55594 12.762 4.87345 13.1479 4.96992L13.3419 4.19381C13.2718 4.1763 13.2144 4.11677 13.2008 4.03703L12.4121 4.17096ZM12.1051 2.34203L12.412 4.17022L13.201 4.03778L12.8941 2.20959L12.1051 2.34203ZM12.3856 2.57936C12.2534 2.57936 12.1267 2.48284 12.1042 2.33663L12.8949 2.21499C12.8549 1.9548 12.6318 1.77936 12.3856 1.77936V2.57936ZM10.5399 2.57936H12.3856V1.77936H10.5399V2.57936ZM10.8212 2.33663C10.7987 2.48283 10.672 2.57936 10.5399 2.57936V1.77936C10.2937 1.77936 10.0706 1.95481 10.0305 2.21499L10.8212 2.33663ZM10.5046 4.19742L10.8202 2.34293L10.0316 2.20869L9.7159 4.06318L10.5046 4.19742ZM9.78209 4.98952C10.1511 4.88822 10.4378 4.58335 10.5044 4.19852L9.71609 4.06209C9.70378 4.13321 9.64847 4.1966 9.57031 4.21806L9.78209 4.98952ZM8.04943 5.71839C8.58775 5.3954 9.17046 5.14767 9.77631 4.99106L9.57609 4.21652C8.89301 4.3931 8.23939 4.67146 7.63783 5.0324L8.04943 5.71839ZM6.9644 5.67608C7.28696 5.90334 7.71059 5.9173 8.04611 5.72036L7.64115 5.03043C7.57333 5.07024 7.4884 5.06665 7.42516 5.0221L6.9644 5.67608ZM5.45003 4.59628L6.96255 5.67478L7.42701 5.02341L5.91448 3.94491L5.45003 4.59628ZM5.61649 4.64867C5.54805 4.64867 5.48709 4.62422 5.44226 4.5906L5.92225 3.95059C5.84234 3.89066 5.73755 3.84867 5.61649 3.84867V4.64867ZM5.81604 4.56659C5.78892 4.5937 5.75241 4.61766 5.70898 4.6327C5.66752 4.64705 5.63291 4.64867 5.61649 4.64867V3.84867C5.52525 3.84867 5.37857 3.87269 5.25035 4.00091L5.81604 4.56659ZM4.50956 5.87306L5.81604 4.56659L5.25035 4.0009L3.94388 5.30738L4.50956 5.87306ZM4.54126 5.50989C4.58444 5.57158 4.59716 5.63879 4.59252 5.69565C4.58781 5.75332 4.56367 5.81896 4.50956 5.87306L3.94388 5.30738C3.76429 5.48697 3.74624 5.76918 3.88588 5.96866L4.54126 5.50989ZM5.63115 7.04185L4.5395 5.5074L3.88764 5.97116L4.97929 7.5056L5.63115 7.04185ZM5.68087 8.11629C5.88021 7.77668 5.85743 7.3557 5.62969 7.03981L4.98075 7.50765C5.02483 7.56879 5.02835 7.6476 4.99094 7.71133L5.68087 8.11629ZM4.97412 9.85278C5.12753 9.24331 5.36341 8.65639 5.68075 8.1165L4.99107 7.71112C4.63325 8.31987 4.36934 8.97805 4.19832 9.65751L4.97412 9.85278ZM4.17532 10.5879C4.56029 10.5225 4.87781 10.238 4.97428 9.85216L4.19816 9.65813C4.18065 9.72819 4.12113 9.78566 4.04138 9.7992L4.17532 10.5879ZM2.34639 10.8949L4.17457 10.588L4.04213 9.79908L2.21395 10.106L2.34639 10.8949ZM2.58372 10.6144C2.58372 10.7466 2.48719 10.8733 2.34099 10.8958L2.21935 10.1051C1.95916 10.1451 1.78372 10.3683 1.78372 10.6144H2.58372ZM2.58372 12.4602V10.6144H1.78372V12.4602H2.58372ZM2.34099 12.1788C2.48719 12.2013 2.58372 12.328 2.58372 12.4602H1.78372C1.78372 12.7063 1.95916 12.9295 2.21935 12.9695L2.34099 12.1788ZM4.20178 12.4955L2.34729 12.1798L2.21305 12.9685L4.06754 13.2841L4.20178 12.4955ZM4.99387 13.2179C4.89257 12.8489 4.5877 12.5623 4.20287 12.4957L4.06644 13.2839C4.13756 13.2963 4.20096 13.3516 4.22241 13.4297L4.99387 13.2179ZM5.72275 14.9506C5.39976 14.4123 5.15203 13.8296 4.99541 13.2237L4.22087 13.4239C4.39745 14.107 4.67582 14.7606 5.03675 15.3622L5.72275 14.9506ZM5.68044 16.0356C5.9077 15.7131 5.92165 15.2894 5.72472 14.9539L5.03478 15.3589C5.07459 15.4267 5.07101 15.5116 5.02645 15.5749L5.68044 16.0356ZM4.60063 17.55L5.67913 16.0375L5.02776 15.573L3.94926 17.0855L4.60063 17.55ZM4.57094 17.184C4.67651 17.2896 4.67261 17.4379 4.61241 17.5325L3.93748 17.103C3.81591 17.2941 3.82078 17.5652 4.00526 17.7497L4.57094 17.184ZM5.87741 18.4905L4.57094 17.184L4.00526 17.7497L5.31173 19.0562L5.87741 18.4905ZM5.67787 18.4084C5.722 18.4084 5.80663 18.4197 5.87741 18.4905L5.31174 19.0562C5.44389 19.1883 5.59867 19.2084 5.67787 19.2084V18.4084ZM5.53784 18.4435C5.54276 18.4405 5.55685 18.4324 5.5786 18.4248C5.60099 18.417 5.63508 18.4084 5.67787 18.4084V19.2084C5.80464 19.2084 5.90066 19.1587 5.94942 19.1295L5.53784 18.4435ZM7.0462 17.3689L5.51175 18.4605L5.97551 19.1124L7.50996 18.0207L7.0462 17.3689ZM7.62004 17.1852C7.42554 17.1852 7.21723 17.2424 7.04032 17.3731L7.51583 18.0165C7.5406 17.9982 7.5778 17.9852 7.62004 17.9852V17.1852ZM8.11662 17.3168C7.96203 17.2285 7.78804 17.1852 7.62004 17.1852V17.9852C7.65371 17.9852 7.69017 17.9945 7.71971 18.0114L8.11662 17.3168ZM9.81585 18.0134C9.22486 17.8605 8.65298 17.6245 8.1172 17.3172L7.71913 18.0111C8.31446 18.3526 8.95259 18.6164 9.61546 18.7879L9.81585 18.0134ZM10.544 18.8072C10.4782 18.4195 10.1919 18.1093 9.81446 18.0131L9.61686 18.7883C9.68662 18.806 9.74225 18.8641 9.75533 18.9411L10.544 18.8072ZM10.8511 20.6497L10.5442 18.8084L9.75513 18.9399L10.062 20.7812L10.8511 20.6497ZM10.5706 20.4119C10.7027 20.4119 10.8294 20.5085 10.8519 20.6547L10.0612 20.7763C10.1013 21.0365 10.3244 21.2119 10.5706 21.2119V20.4119ZM12.4163 20.4119H10.5706V21.2119H12.4163V20.4119ZM12.1349 20.6547C12.1574 20.5085 12.2841 20.4119 12.4163 20.4119V21.2119C12.6624 21.2119 12.8856 21.0365 12.9256 20.7763L12.1349 20.6547ZM12.4471 18.8075L12.1359 20.6488L12.9247 20.7822L13.2359 18.9408L12.4471 18.8075ZM13.1786 18.0126C12.7951 18.1085 12.5059 18.4254 12.4462 18.8133L13.2369 18.935C13.2474 18.867 13.3001 18.8068 13.3726 18.7887L13.1786 18.0126ZM14.9079 17.2941C14.3672 17.6161 13.7844 17.856 13.1755 18.0134L13.3757 18.7879C14.0557 18.6121 14.7092 18.3435 15.3172 17.9815L14.9079 17.2941ZM15.9909 17.3397C15.6698 17.1081 15.244 17.0968 14.91 17.2929L15.315 17.9828C15.3844 17.9421 15.4672 17.9483 15.5231 17.9886L15.9909 17.3397ZM17.5102 18.4211L15.989 17.3382L15.525 17.99L17.0463 19.0729L17.5102 18.4211ZM17.344 18.3689C17.4125 18.3689 17.4735 18.3934 17.5183 18.427L17.0383 19.067C17.1182 19.1269 17.223 19.1689 17.344 19.1689V18.3689ZM17.1445 18.451C17.1716 18.4239 17.2081 18.3999 17.2516 18.3849C17.293 18.3706 17.3276 18.3689 17.344 18.3689V19.1689C17.4353 19.1689 17.582 19.1449 17.7102 19.0167L17.1445 18.451ZM18.451 17.1445L17.1445 18.451L17.7102 19.0167L19.0167 17.7102L18.451 17.1445ZM18.4193 17.5077C18.3761 17.446 18.3634 17.3788 18.368 17.3219C18.3727 17.2643 18.3969 17.1986 18.451 17.1445L19.0167 17.7102C19.1963 17.5306 19.2143 17.2484 19.0747 17.0489L18.4193 17.5077ZM17.3379 15.9842L18.4208 17.5098L19.0732 17.0468L17.9903 15.5211L17.3379 15.9842ZM17.2928 14.9057C17.0958 15.2414 17.11 15.6607 17.3371 15.983L17.9911 15.5223C17.9464 15.4588 17.9431 15.3783 17.9828 15.3107L17.2928 14.9057ZM18.0134 13.1711C17.8559 13.78 17.616 14.3628 17.2941 14.9035L17.9815 15.3128C18.3435 14.7049 18.6121 14.0514 18.7879 13.3713L18.0134 13.1711ZM18.8071 12.4428C18.4195 12.5087 18.1092 12.795 18.013 13.1724L18.7882 13.37C18.806 13.3003 18.864 13.2446 18.9411 13.2315L18.8071 12.4428ZM20.6497 12.1357L18.8084 12.4426L18.9399 13.2317L20.7812 12.9249L20.6497 12.1357Z" fill="#62687E"/>
<path fill-rule="evenodd" clip-rule="evenodd" d="M6.9668 11.4913C6.9668 8.99232 8.99665 6.96246 11.4956 6.96246C13.9946 6.96246 16.0244 8.99232 16.0244 11.4913C16.0244 13.9902 13.9946 16.0201 11.4956 16.0201C8.99665 16.0201 6.9668 13.9902 6.9668 11.4913ZM8.15051 11.4913C8.15051 13.337 9.64989 14.8364 11.4956 14.8364C13.3413 14.8364 14.8407 13.337 14.8407 11.4913C14.8407 9.64555 13.3413 8.14618 11.4956 8.14618C9.64989 8.14618 8.15051 9.64555 8.15051 11.4913Z" fill="#62687E"/>
<path d="M11.4956 6.56246C8.77574 6.56246 6.5668 8.7714 6.5668 11.4913H7.3668C7.3668 9.21323 9.21756 7.36246 11.4956 7.36246V6.56246ZM16.4244 11.4913C16.4244 8.7714 14.2155 6.56246 11.4956 6.56246V7.36246C13.7736 7.36246 15.6244 9.21323 15.6244 11.4913H16.4244ZM11.4956 16.4201C14.2155 16.4201 16.4244 14.2111 16.4244 11.4913H15.6244C15.6244 13.7693 13.7736 15.6201 11.4956 15.6201V16.4201ZM6.5668 11.4913C6.5668 14.2111 8.77574 16.4201 11.4956 16.4201V15.6201C9.21756 15.6201 7.3668 13.7693 7.3668 11.4913H6.5668ZM11.4956 14.4364C9.8708 14.4364 8.55051 13.1161 8.55051 11.4913H7.75051C7.75051 13.5579 9.42897 15.2364 11.4956 15.2364V14.4364ZM14.4407 11.4913C14.4407 13.1161 13.1204 14.4364 11.4956 14.4364V15.2364C13.5622 15.2364 15.2407 13.5579 15.2407 11.4913H14.4407ZM11.4956 8.54618C13.1204 8.54618 14.4407 9.86647 14.4407 11.4913H15.2407C15.2407 9.42464 13.5622 7.74618 11.4956 7.74618V8.54618ZM8.55051 11.4913C8.55051 9.86647 9.8708 8.54618 11.4956 8.54618V7.74618C9.42897 7.74618 7.75051 9.42464 7.75051 11.4913H8.55051Z" fill="#62687E"/>
</svg>
