<svg width="22" height="21" viewBox="0 0 22 21" fill="none" xmlns="http://www.w3.org/2000/svg">
<path fill-rule="evenodd" clip-rule="evenodd" d="M17.5663 18.9H3.64655C2.89734 18.9 2.3441 18.1681 2.62668 17.4951C3.93778 14.3829 7.01796 12.6 10.6059 12.6C14.1949 12.6 17.2751 14.3829 18.5862 17.4951C18.8688 18.1681 18.3155 18.9 17.5663 18.9M6.27525 6.29998C6.27525 3.98368 8.21863 2.09998 10.6059 2.09998C12.9943 2.09998 14.9366 3.98368 14.9366 6.29998C14.9366 8.61628 12.9943 10.5 10.6059 10.5C8.21863 10.5 6.27525 8.61628 6.27525 6.29998M21.1651 18.5178C20.378 14.9908 17.916 12.3879 14.6756 11.2066C16.3927 9.86578 17.3942 7.69753 17.0261 5.32348C16.5995 2.56933 14.2372 0.365376 11.3854 0.0440758C7.44886 -0.400074 4.10992 2.57143 4.10992 6.29998C4.10992 8.28448 5.05834 10.0527 6.53725 11.2066C3.29576 12.3879 0.834871 14.9908 0.0466921 18.5178C-0.239131 19.7998 0.826209 21 2.17845 21H19.0333C20.3867 21 21.452 19.7998 21.1651 18.5178" fill="#62687E"/>
</svg>
